<svg width="200" height="200" viewBox="0 0 200 200" xmlns="http://www.w3.org/2000/svg">
  <defs>
    <linearGradient id="bgKhalid" x1="0%" y1="0%" x2="100%" y2="100%">
      <stop offset="0%" style="stop-color:#0e2440"/>
      <stop offset="100%" style="stop-color:#1A3A5C"/>
    </linearGradient>
    <linearGradient id="skinKhalid" x1="0%" y1="0%" x2="100%" y2="100%">
      <stop offset="0%" style="stop-color:#c8a07a"/>
      <stop offset="100%" style="stop-color:#b08060"/>
    </linearGradient>
  </defs>
  <circle cx="100" cy="100" r="100" fill="url(#bgKhalid)"/>
  <!-- Coat -->
  <rect x="45" y="148" width="110" height="65" rx="8" fill="#f5f5f5"/>
  <rect x="87" y="148" width="26" height="55" fill="#1A3A5C"/>
  <!-- Neck & Body -->
  <rect x="76" y="118" width="48" height="40" rx="4" fill="url(#skinKhalid)"/>
  <!-- Head -->
  <ellipse cx="100" cy="88" rx="34" ry="40" fill="url(#skinKhalid)"/>
  <!-- Hair (short dark) -->
  <ellipse cx="100" cy="60" rx="34" ry="18" fill="#1a0f0a"/>
  <rect x="66" y="62" width="68" height="12" fill="#1a0f0a"/>
  <!-- Beard -->
  <path d="M74 110 Q100 125 126 110 Q120 135 100 138 Q80 135 74 110z" fill="#2a1a10"/>
  <!-- Ears -->
  <ellipse cx="66" cy="91" rx="5" ry="7" fill="#b08060"/>
  <ellipse cx="134" cy="91" rx="5" ry="7" fill="#b08060"/>
  <!-- Eyes -->
  <ellipse cx="88" cy="85" rx="6" ry="5" fill="#ffffff"/>
  <ellipse cx="112" cy="85" rx="6" ry="5" fill="#ffffff"/>
  <circle cx="89" cy="85" r="3.5" fill="#1a0f0a"/>
  <circle cx="113" cy="85" r="3.5" fill="#1a0f0a"/>
  <circle cx="90" cy="84" r="1" fill="#ffffff"/>
  <circle cx="114" cy="84" r="1" fill="#ffffff"/>
  <!-- Eyebrows (thick) -->
  <path d="M82 79 Q88 75 94 79" stroke="#1a0f0a" stroke-width="2.5" fill="none" stroke-linecap="round"/>
  <path d="M106 79 Q112 75 118 79" stroke="#1a0f0a" stroke-width="2.5" fill="none" stroke-linecap="round"/>
  <!-- Nose -->
  <ellipse cx="100" cy="97" rx="5" ry="4" fill="#a07050" opacity="0.4"/>
  <!-- Mouth -->
  <path d="M92 110 Q100 116 108 110" stroke="#8a5a40" stroke-width="2" fill="none" stroke-linecap="round"/>
  <!-- Clip board -->
  <rect x="118" y="158" width="22" height="28" rx="2" fill="#C9A96E"/>
  <rect x="120" y="162" width="18" height="3" rx="1" fill="#0A0A0F"/>
  <rect x="120" y="168" width="18" height="3" rx="1" fill="#0A0A0F"/>
  <rect x="120" y="174" width="12" height="3" rx="1" fill="#0A0A0F"/>
  <rect x="108" y="155" width="10" height="5" rx="2" fill="#C9A96E"/>
</svg>
